<svg xmlns="http://www.w3.org/2000/svg" width="25" height="40" viewBox="0 0 25 40">
  <path fill="#D7772D" d="M12.8,21.2 C10,21.2 7.6,20.2333333 5.6,18.3 C3.6,16.3666667 2.63333333,13.9666667 2.7,11.1 C2.7,8.3 3.66666667,5.93333333 5.6,4 C7.53333333,2.06666667 9.93333333,1.06666667 12.8,1 C15.6666667,0.933333333 18.0333333,1.93333333 19.9,4 C21.7666667,6.06666667 22.7666667,8.43333333 22.9,11.1 C22.9,13.9 21.9,16.3 19.9,18.3 C17.9,20.3 15.5333333,21.2666667 12.8,21.2 Z M12.8,6.1 C11.4,6.1 10.2333333,6.6 9.3,7.6 C8.36666667,8.6 7.86666667,9.76666667 7.8,11.1 C7.8,12.5 8.3,13.6666667 9.3,14.6 C10.3,15.5333333 11.4666667,16.0333333 12.8,16.1 C14.1333333,16.1666667 15.3,15.6666667 16.3,14.6 C17.3,13.5333333 17.8,12.3666667 17.8,11.1 C17.8,9.76666667 17.3,8.6 16.3,7.6 C15.3,6.6 14.1333333,6.1 12.8,6.1 Z M24.5,22.5 C24.7,22.9 24.8,23.2666667 24.8,23.6 C24.8,23.9333333 24.7666667,24.2333333 24.7,24.5 C24.6333333,24.7666667 24.4333333,25.0333333 24.1,25.3 C23.7666667,25.5666667 23.4666667,25.8666667 23.2,26.2 C22.9333333,26.5333333 22.4666667,26.8333333 21.8,27.1 C20.0666667,28.1666667 17.7333333,28.8666667 14.8,29.2 L16.4,30.8 L22.3,36.8 C22.7666667,37.2666667 23,37.8 23,38.4 C23,39 22.7666667,39.5333333 22.3,40 L22.1,40.3 C21.6333333,40.7666667 21.0666667,41 20.4,41 C19.7333333,41 19.2,40.7666667 18.8,40.3 C17.8,39.3 15.8,37.3 12.8,34.3 L6.8,40.3 C6.4,40.7666667 5.86666667,41 5.2,41 C4.53333333,41 4,40.7666667 3.6,40.3 L3.3,40 C2.83333333,39.6 2.6,39.0666667 2.6,38.4 C2.6,37.7333333 2.83333333,37.2 3.3,36.8 L10.9,29.2 C7.83333333,28.8666667 5.46666667,28.1666667 3.8,27.1 C3.2,26.7 2.73333333,26.4 2.4,26.2 C2.06666667,26 1.76666667,25.7 1.5,25.3 C1.23333333,24.9 1.03333333,24.6333333 0.9,24.5 C0.766666667,24.3666667 0.733333333,24.0666667 0.8,23.6 C0.866666667,23.1333333 0.966666667,22.7666667 1.1,22.5 C1.23333333,22.1666667 1.43333333,21.9 1.7,21.7 C1.96666667,21.5 2.3,21.3333333 2.7,21.2 C3.1,21.0666667 3.5,21.0666667 3.9,21.2 C4.3,21.3333333 4.8,21.6 5.4,22 C5.46666667,22.0666667 5.56666667,22.1666667 5.7,22.3 C5.83333333,22.4333333 6.16666667,22.6 6.7,22.8 C7.23333333,23 7.73333333,23.2333333 8.2,23.5 C8.66666667,23.7666667 9.36666667,23.9333333 10.3,24 C11.2333333,24.0666667 12.0666667,24.1666667 12.8,24.3 C14.1333333,24.3 15.4333333,24.1 16.7,23.7 C17.9666667,23.3 18.8333333,22.9333333 19.3,22.6 L20.2,22 C20.6666667,21.6666667 21.1333333,21.4 21.6,21.2 C22.0666667,21 22.5,21 22.9,21.2 C23.3,21.4 23.6,21.5666667 23.8,21.7 C24,21.8333333 24.2333333,22.1 24.5,22.5 Z" transform="translate(0 -1)"/>
</svg>
